<svg width="60" height="60" viewBox="0 0 60 60" fill="none" xmlns="http://www.w3.org/2000/svg">
<path d="M28.9792 37.7291C29.2709 38.0208 29.6112 38.1666 30 38.1666C30.3889 38.1666 30.7292 38.0208 31.0209 37.7291L39.1875 29.5624C39.625 29.1249 39.7349 28.6028 39.5171 27.9962C39.2993 27.3895 38.8492 27.0852 38.1667 27.0833H21.8334C21.1528 27.0833 20.7037 27.3876 20.4859 27.9962C20.2681 28.6048 20.377 29.1269 20.8125 29.5624L28.9792 37.7291ZM30 59.1666C25.9653 59.1666 22.1737 58.4005 18.625 56.8683C15.0764 55.336 11.9896 53.2584 9.36462 50.6353C6.73962 48.0103 4.66199 44.9235 3.13171 41.3749C1.60143 37.8263 0.835318 34.0346 0.833374 29.9999C0.833374 25.9652 1.59949 22.1735 3.13171 18.6249C4.66393 15.0763 6.74157 11.9895 9.36462 9.3645C11.9896 6.7395 15.0764 4.66186 18.625 3.13159C22.1737 1.60131 25.9653 0.835196 30 0.833252C34.0348 0.833252 37.8264 1.59936 41.375 3.13159C44.9237 4.66381 48.0105 6.74145 50.6355 9.3645C53.2605 11.9895 55.3391 15.0763 56.8713 18.6249C58.4035 22.1735 59.1687 25.9652 59.1667 29.9999C59.1667 34.0346 58.4006 37.8263 56.8684 41.3749C55.3362 44.9235 53.2585 48.0103 50.6355 50.6353C48.0105 53.2603 44.9237 55.3389 41.375 56.8712C37.8264 58.4034 34.0348 59.1685 30 59.1666Z" fill="#053B47"/>
</svg>
