<svg width="95" height="42" viewBox="0 0 95 42" fill="none" xmlns="http://www.w3.org/2000/svg">
<path d="M46.86 24.46C46.86 24.26 46.9333 24.0533 47.08 23.84C47.24 23.6267 47.42 23.52 47.62 23.52C47.6867 23.52 47.7333 23.5333 47.76 23.56C48.2267 24.0533 48.9267 24.5067 49.86 24.92C50.8067 25.32 51.6933 25.52 52.52 25.52C54.9067 25.52 56.1 24.7267 56.1 23.14C56.1 22.6067 55.9333 22.1733 55.6 21.84C55.28 21.4933 54.8533 21.2333 54.32 21.06C53.8 20.8867 53.22 20.74 52.58 20.62C51.9533 20.5 51.32 20.36 50.68 20.2C50.04 20.0267 49.4533 19.8133 48.92 19.56C48.4 19.3067 47.9733 18.92 47.64 18.4C47.32 17.88 47.16 17.2467 47.16 16.5C47.16 15.38 47.6533 14.52 48.64 13.92C49.6267 13.3067 50.8067 13 52.18 13C53.2467 13 54.2467 13.18 55.18 13.54C56.1267 13.8867 56.82 14.38 57.26 15.02C57.2733 15.0467 57.28 15.08 57.28 15.12C57.28 15.28 57.1667 15.4467 56.94 15.62C56.7267 15.78 56.5333 15.86 56.36 15.86C56.3333 15.86 56.2533 15.8267 56.12 15.76C55.0667 14.8933 53.76 14.46 52.2 14.46C51.2533 14.46 50.42 14.64 49.7 15C48.98 15.3467 48.62 15.88 48.62 16.6C48.62 17.0933 48.78 17.5 49.1 17.82C49.4333 18.14 49.86 18.38 50.38 18.54C50.9133 18.6867 51.5 18.82 52.14 18.94C52.78 19.0467 53.42 19.1867 54.06 19.36C54.7 19.5333 55.28 19.76 55.8 20.04C56.3333 20.3067 56.76 20.7133 57.08 21.26C57.4133 21.8067 57.58 22.4733 57.58 23.26C57.58 25.74 55.94 26.98 52.66 26.98C51.5933 26.98 50.5467 26.7933 49.52 26.42C48.4933 26.0333 47.6533 25.5067 47 24.84C46.9067 24.7467 46.86 24.62 46.86 24.46ZM59.96 25.98V14C59.96 13.3467 60.1333 13.02 60.48 13.02H70.76C70.9333 13.02 71.0667 13.0933 71.16 13.24C71.2667 13.3867 71.32 13.56 71.32 13.76C71.32 14.2533 71.1333 14.5 70.76 14.5H61.44V18.42H68.96C69.1333 18.42 69.2667 18.4933 69.36 18.64C69.4667 18.7867 69.52 18.96 69.52 19.16C69.52 19.6533 69.3333 19.9 68.96 19.9H61.44V25.52H70.76C70.9333 25.52 71.0667 25.5933 71.16 25.74C71.2667 25.8867 71.32 26.06 71.32 26.26C71.32 26.7533 71.1333 27 70.76 27H60.48C60.2533 27 60.1067 26.92 60.04 26.76C59.9867 26.6 59.96 26.34 59.96 25.98ZM73.3975 26.44V13.54C73.3975 13.18 73.6508 13 74.1575 13C74.3575 13 74.5242 13.0467 74.6575 13.14C74.8042 13.2333 74.8775 13.3667 74.8775 13.54V25.54H81.4375C81.6108 25.54 81.7442 25.6133 81.8375 25.76C81.9442 25.9067 81.9975 26.08 81.9975 26.28C81.9975 26.76 81.8108 27 81.4375 27H74.5575C73.7842 27 73.3975 26.8133 73.3975 26.44ZM83.6319 26.44V14C83.6319 13.3467 83.8052 13.02 84.1519 13.02H94.4319C94.6052 13.02 94.7385 13.0933 94.8319 13.24C94.9385 13.3867 94.9919 13.56 94.9919 13.76C94.9919 14.2533 94.8052 14.5 94.4319 14.5H85.1119V18.42H92.6319C92.8052 18.42 92.9385 18.4933 93.0319 18.64C93.1385 18.7867 93.1919 18.96 93.1919 19.16C93.1919 19.6533 93.0052 19.9 92.6319 19.9H85.1119V26.44C85.1119 26.6133 85.0319 26.7533 84.8719 26.86C84.7252 26.9533 84.5519 27 84.3519 27C83.8719 27 83.6319 26.8133 83.6319 26.44Z" fill="#C8DEFF"/>
<g clip-path="url(#clip0_2662_2621)">
<mask id="mask0_2662_2621" style="mask-type:luminance" maskUnits="userSpaceOnUse" x="0" y="0" width="36" height="36">
<path d="M14.2768 33C13.5418 30.6038 12.4333 28.8165 10.9506 27.6398C8.72683 25.875 5.19358 26.9722 3.88858 25.1512C2.58358 23.3302 4.80283 19.9823 5.58133 18.0068C6.36058 16.0313 2.59633 15.333 3.03583 14.772C3.32833 14.3977 5.23108 13.3193 8.74258 11.535C9.74008 5.8455 13.4248 3 19.7983 3C29.3578 3 32.9998 11.1045 32.9998 16.26C32.9998 21.414 28.5898 26.967 22.3078 28.1648C21.7461 28.9823 22.5561 30.5947 24.7378 33" stroke="white" stroke-width="4.667" stroke-linecap="round" stroke-linejoin="round"/>
<path fill-rule="evenodd" clip-rule="evenodd" d="M14.6255 10.8747C14.135 12.7752 14.2805 14.1102 15.0627 14.8789C15.8442 15.6469 17.1762 16.1502 19.0587 16.3864C18.6312 18.8382 19.1525 19.9879 20.621 19.8364C22.0895 19.6857 22.9722 19.0752 23.2685 18.0064C25.5635 18.6514 26.8077 18.1114 27.0005 16.3864C27.2892 13.7989 25.8942 11.7357 25.322 11.7357C24.7505 11.7357 23.2685 11.6659 23.2685 10.8747C23.2685 10.0834 21.5375 9.63716 19.9752 9.63716C18.413 9.63716 19.3527 8.58341 17.2077 8.99966C15.7775 9.27716 14.9165 9.90191 14.6255 10.8747Z" fill="white" stroke="white" stroke-width="4" stroke-linejoin="round"/>
<path d="M22.8755 19.125C22.1128 19.5982 21.0665 20.385 20.6255 21C19.5238 22.5375 18.6305 23.4735 18.4355 24.456" stroke="white" stroke-width="4" stroke-linecap="round"/>
</mask>
<g mask="url(#mask0_2662_2621)">
<path d="M0 0H36V36H0V0Z" fill="#C8DEFF"/>
</g>
</g>
<defs>
<clipPath id="clip0_2662_2621">
<rect width="36" height="36" fill="white"/>
</clipPath>
</defs>
</svg>
