<svg width="92" height="42" viewBox="0 0 92 42" fill="none" xmlns="http://www.w3.org/2000/svg">
<path d="M42.907 28.1C42.907 27.9267 42.9803 27.74 43.127 27.54C43.287 27.34 43.467 27.2133 43.667 27.16C43.7603 27.16 43.807 27.1733 43.807 27.2C44.2336 27.6667 44.847 28.0333 45.647 28.3C46.447 28.5533 47.0736 28.7 47.527 28.74C47.9936 28.78 48.427 28.8 48.827 28.8C50.5603 28.8 51.427 28.2733 51.427 27.22C51.427 26.86 51.2936 26.5733 51.027 26.36C50.7736 26.1333 50.4203 25.98 49.967 25.9C49.527 25.82 49.0803 25.7667 48.627 25.74C48.1736 25.7133 47.6803 25.6933 47.147 25.68C46.6136 25.6533 46.207 25.6133 45.927 25.56C45.167 25.4133 44.4936 25.1067 43.907 24.64C43.3203 24.16 43.027 23.6 43.027 22.96C43.027 21.9467 43.5336 21.1733 44.547 20.64C45.5736 20.0933 46.7003 19.82 47.927 19.82C48.7536 19.82 49.6403 19.9667 50.587 20.26C51.5336 20.54 52.2403 20.98 52.707 21.58C52.7203 21.6067 52.727 21.64 52.727 21.68C52.727 21.8533 52.647 22.06 52.487 22.3C52.327 22.5267 52.1736 22.64 52.027 22.64C51.8936 22.64 51.7603 22.5333 51.627 22.32C50.987 21.64 49.7136 21.3 47.807 21.3C47.0203 21.3 46.2736 21.4333 45.567 21.7C44.8603 21.9667 44.507 22.36 44.507 22.88C44.507 23.32 44.8136 23.6533 45.427 23.88C46.0403 24.0933 46.6936 24.2 47.387 24.2C47.8803 24.2 48.2936 24.2067 48.627 24.22C48.9603 24.2333 49.367 24.2733 49.847 24.34C50.327 24.3933 50.727 24.4933 51.047 24.64C51.367 24.7733 51.6803 24.9533 51.987 25.18C52.2936 25.3933 52.5203 25.6867 52.667 26.06C52.827 26.42 52.907 26.8467 52.907 27.34C52.907 28.02 52.6936 28.5933 52.267 29.06C51.8536 29.5133 51.3736 29.8267 50.827 30C50.2936 30.1867 49.727 30.28 49.127 30.28C46.3136 30.28 44.287 29.68 43.047 28.48C42.9536 28.3867 42.907 28.26 42.907 28.1ZM54.469 24.72C54.469 23.8667 54.6557 23.1067 55.029 22.44C55.4023 21.7733 55.8957 21.2467 56.509 20.86C57.1223 20.4733 57.7823 20.1867 58.489 20C59.1957 19.8 59.9157 19.7 60.649 19.7C61.9557 19.7 62.969 19.9867 63.689 20.56C64.409 21.12 64.769 21.8133 64.769 22.64C64.769 23.5333 64.349 24.2933 63.509 24.92C62.669 25.5467 61.4757 25.86 59.929 25.86C58.5423 25.86 57.2223 25.66 55.969 25.26C56.1157 26.2467 56.5757 27.0733 57.349 27.74C58.1223 28.4067 59.0757 28.74 60.209 28.74C60.809 28.74 61.429 28.6467 62.069 28.46C62.7223 28.2733 63.2357 28.0067 63.609 27.66C63.6623 27.5533 63.769 27.5 63.929 27.5C64.1157 27.5 64.3157 27.5867 64.529 27.76C64.7423 27.92 64.849 28.0867 64.849 28.26C64.5157 28.94 63.8623 29.44 62.889 29.76C61.929 30.0667 60.9957 30.22 60.089 30.22C58.449 30.22 57.1023 29.68 56.049 28.6C54.9957 27.52 54.469 26.2267 54.469 24.72ZM56.049 23.72C57.049 24.16 58.289 24.38 59.769 24.38C60.929 24.38 61.809 24.2 62.409 23.84C63.009 23.4667 63.309 23.0533 63.309 22.6C63.309 22.2 63.0557 21.8667 62.549 21.6C62.0557 21.32 61.3157 21.18 60.329 21.18C59.2623 21.18 58.369 21.42 57.649 21.9C56.9423 22.3667 56.409 22.9733 56.049 23.72ZM66.823 29.44V15.54C66.823 15.18 67.0764 15 67.583 15C67.783 15 67.9497 15.0467 68.083 15.14C68.2297 15.2333 68.303 15.3667 68.303 15.54V29.44C68.303 29.6133 68.2297 29.7533 68.083 29.86C67.9364 29.9533 67.763 30 67.563 30C67.0697 30 66.823 29.8133 66.823 29.44ZM70.1098 21.24C70.1098 20.7467 70.2964 20.5 70.6698 20.5H71.3498V19.26C71.3498 16.42 72.4098 15 74.5298 15C75.4498 15 76.2231 15.28 76.8498 15.84C77.4764 16.4 77.7964 17.2067 77.8098 18.26C77.8098 18.4733 77.7364 18.64 77.5898 18.76C77.4564 18.8667 77.2898 18.92 77.0898 18.92C76.8764 18.92 76.6964 18.86 76.5498 18.74C76.4031 18.62 76.3298 18.4667 76.3298 18.28C76.3298 17.6133 76.1498 17.1467 75.7898 16.88C75.4298 16.6133 75.0098 16.48 74.5298 16.48C73.3964 16.48 72.8298 17.2267 72.8298 18.72V20.5H76.0298C76.3898 20.5 76.5698 20.7533 76.5698 21.26C76.5698 21.46 76.5231 21.6333 76.4298 21.78C76.3364 21.9133 76.2031 21.98 76.0298 21.98H72.8298V29.44C72.8298 29.8 72.5764 29.98 72.0698 29.98C71.8698 29.98 71.6964 29.9333 71.5498 29.84C71.4164 29.7467 71.3498 29.6133 71.3498 29.44V21.98H70.6698C70.4964 21.98 70.3564 21.9067 70.2498 21.76C70.1564 21.6133 70.1098 21.44 70.1098 21.24Z" fill="#053B47"/>
<g clip-path="url(#clip0_2111_42)">
<mask id="mask0_2111_42" style="mask-type:luminance" maskUnits="userSpaceOnUse" x="0" y="0" width="36" height="36">
<path d="M14.277 33C13.542 30.6038 12.4335 28.8165 10.9508 27.6398C8.72701 25.875 5.19376 26.9722 3.88876 25.1512C2.58376 23.3302 4.80301 19.9823 5.58151 18.0068C6.36076 16.0313 2.59651 15.333 3.03601 14.772C3.32851 14.3977 5.23126 13.3193 8.74276 11.535C9.74026 5.8455 13.425 3 19.7985 3C29.358 3 33 11.1045 33 16.26C33 21.414 28.59 26.967 22.308 28.1648C21.7463 28.9823 22.5563 30.5947 24.738 33" stroke="white" stroke-width="4.667" stroke-linecap="round" stroke-linejoin="round"/>
<path fill-rule="evenodd" clip-rule="evenodd" d="M14.625 10.8752C14.1345 12.7757 14.28 14.1107 15.0622 14.8794C15.8437 15.6474 17.1757 16.1507 19.0582 16.3869C18.6307 18.8387 19.152 19.9884 20.6205 19.8369C22.089 19.6861 22.9717 19.0757 23.268 18.0069C25.563 18.6519 26.8072 18.1119 27 16.3869C27.2887 13.7994 25.8937 11.7362 25.3215 11.7362C24.75 11.7362 23.268 11.6664 23.268 10.8752C23.268 10.0839 21.537 9.63765 19.9747 9.63765C18.4125 9.63765 19.3522 8.5839 17.2072 9.00015C15.777 9.27765 14.916 9.9024 14.625 10.8752Z" fill="white" stroke="white" stroke-width="4" stroke-linejoin="round"/>
<path d="M22.875 19.125C22.1122 19.5982 21.066 20.385 20.625 21C19.5232 22.5375 18.63 23.4735 18.435 24.456" stroke="white" stroke-width="4" stroke-linecap="round"/>
</mask>
<g mask="url(#mask0_2111_42)">
<path d="M0 0H36V36H0V0Z" fill="#053B47"/>
</g>
</g>
<defs>
<clipPath id="clip0_2111_42">
<rect width="36" height="36" fill="white"/>
</clipPath>
</defs>
</svg>
