<svg width="32" height="24" viewBox="0 0 32 24" fill="none" xmlns="http://www.w3.org/2000/svg">
<path d="M0.840909 24V17.4545C0.840909 15.5227 1.20455 13.4886 1.93182 11.3523C2.65909 9.21591 3.67045 7.17045 4.96591 5.21591C6.26136 3.26136 7.78409 1.59091 9.53409 0.204546L14.5795 3.81818C13.1932 5.84091 12.0114 7.95454 11.0341 10.1591C10.0568 12.3636 9.56818 14.7614 9.56818 17.3523V24H0.840909ZM18.2273 24V17.4545C18.2273 15.5227 18.5909 13.4886 19.3182 11.3523C20.0455 9.21591 21.0568 7.17045 22.3523 5.21591C23.6477 3.26136 25.1705 1.59091 26.9205 0.204546L31.9659 3.81818C30.5795 5.84091 29.3977 7.95454 28.4205 10.1591C27.4432 12.3636 26.9545 14.7614 26.9545 17.3523V24H18.2273Z" fill="#2344B9"/>
</svg>
