<svg width="687" height="576" viewBox="0 0 687 576" fill="none" xmlns="http://www.w3.org/2000/svg">
<path d="M182.773 -42.8022L782.821 117.98L667.693 547.645L67.6447 386.862L182.773 -42.8022Z" fill="#C4C4C4"/>
<g clip-path="url(#clip0_2546_2110)">
<path d="M743.378 104.364L202.244 -40.6325C187 -44.7169 172.713 -43.0535 159.382 -35.6422C146.05 -28.2309 137.407 -17.1469 133.453 -2.39018L35.2614 364.068C31.3073 378.824 33.2502 392.745 41.0899 405.829C48.9296 418.913 60.4711 427.497 75.7143 431.581L616.849 576.578C632.092 580.663 646.38 578.999 659.711 571.588C673.043 564.176 681.685 553.092 685.639 538.336L783.831 171.878C787.785 157.121 785.843 143.201 778.003 130.117C770.163 117.033 758.622 108.449 743.378 104.364ZM89.883 378.703L188.075 12.2456L729.21 157.242L631.018 523.7L89.883 378.703ZM572.141 311.54L409.546 267.973C391.763 263.208 380.564 269.433 375.951 286.649C371.118 304.685 377.594 316.086 395.378 320.851L557.972 364.418C575.756 369.183 587.064 362.548 591.897 344.512C596.51 327.296 589.925 316.305 572.141 311.54ZM469.755 368.459L388.458 346.675C370.674 341.91 359.476 348.135 354.863 365.352C350.03 383.388 356.506 394.788 374.29 399.553L455.587 421.337C473.371 426.102 484.679 419.467 489.511 401.431C494.125 384.214 487.539 373.224 469.755 368.459ZM668.939 168.771L614.317 154.135C596.534 149.37 585.335 155.596 580.722 172.812L559.634 251.514C554.801 269.55 561.277 280.951 579.06 285.716L633.682 300.351C641.304 302.394 648.314 301.636 654.713 298.079C661.112 294.521 665.41 288.643 667.607 280.445L688.695 201.743C690.672 194.365 689.779 187.535 686.016 181.255C682.253 174.975 676.561 170.813 668.939 168.771Z" fill="#252525"/>
<g clip-path="url(#clip1_2546_2110)">
<path d="M614.324 200.789C614.068 201.744 613.535 202.602 612.791 203.254C612.048 203.906 611.128 204.323 610.147 204.452C609.167 204.581 608.17 204.417 607.283 203.979C606.396 203.542 605.659 202.851 605.164 201.995C604.67 201.138 604.441 200.155 604.505 199.168C604.57 198.181 604.926 197.236 605.528 196.451C606.13 195.667 606.951 195.078 607.887 194.76C608.824 194.442 609.833 194.409 610.789 194.665C612.067 195.012 613.157 195.851 613.819 196.998C614.482 198.145 614.663 199.508 614.324 200.789ZM626.367 196.898L622.808 210.18C622.207 212.421 620.741 214.332 618.731 215.493C616.721 216.653 614.333 216.968 612.091 216.367L598.81 212.808C596.568 212.207 594.657 210.741 593.497 208.731C592.336 206.722 592.022 204.333 592.623 202.092L596.181 188.81C596.782 186.569 598.248 184.657 600.258 183.497C602.268 182.337 604.656 182.022 606.898 182.623L620.179 186.182C622.421 186.782 624.332 188.249 625.492 190.259C626.653 192.268 626.967 194.657 626.367 196.898ZM616.739 201.436C617.123 200.003 617.073 198.489 616.597 197.084C616.12 195.679 615.237 194.448 614.06 193.545C612.883 192.642 611.465 192.108 609.985 192.011C608.505 191.914 607.029 192.258 605.745 193C604.46 193.741 603.424 194.847 602.768 196.178C602.112 197.508 601.865 199.003 602.059 200.474C602.252 201.945 602.878 203.325 603.856 204.44C604.834 205.555 606.121 206.355 607.553 206.739C609.475 207.254 611.522 206.985 613.245 205.99C614.967 204.996 616.224 203.357 616.739 201.436ZM621.257 194.235C621.353 193.877 621.34 193.498 621.221 193.147C621.102 192.796 620.881 192.488 620.587 192.262C620.293 192.036 619.938 191.903 619.568 191.879C619.198 191.854 618.829 191.94 618.508 192.126C618.187 192.311 617.928 192.588 617.764 192.92C617.6 193.253 617.538 193.627 617.587 193.994C617.635 194.362 617.791 194.707 618.036 194.986C618.28 195.265 618.602 195.465 618.96 195.561C619.441 195.689 619.952 195.622 620.383 195.373C620.814 195.125 621.128 194.715 621.257 194.235Z" fill="#72A9B0"/>
</g>
<g clip-path="url(#clip2_2546_2110)">
<path d="M672.018 206.105C670.659 206.345 669.257 206.366 667.859 206.182C669.469 205.699 670.899 204.632 671.837 203.141C670.318 203.597 668.723 203.773 667.114 203.687C666.245 201.97 664.719 200.699 662.741 200.169C659.052 199.18 655.21 201.464 654.188 205.279C654.041 205.827 653.962 206.375 653.938 206.903C648.428 205.116 644.19 201.03 641.995 195.973C641.143 196.832 640.494 197.935 640.157 199.19C639.515 201.589 640.122 204.029 641.62 205.725C640.505 205.426 639.555 204.827 638.774 204.1L638.762 204.148C637.864 207.497 639.437 210.92 642.345 212.372C641.283 212.385 640.236 212.146 639.285 211.673C639.344 213.16 639.857 214.585 640.753 215.747C641.648 216.909 642.881 217.751 644.278 218.153C641.381 219.448 638.15 219.702 635.119 218.874C634.585 218.731 634.06 218.555 633.544 218.348C636 221.111 639.241 223.205 643.039 224.222C655.408 227.537 665.025 218.829 667.471 209.701C667.553 209.395 667.631 209.106 667.697 208.795C669.274 208.183 670.732 207.262 672.018 206.105Z" fill="#72A9B0"/>
</g>
<path d="M652.687 256.654C653.162 254.883 652.101 253.046 650.33 252.572L624.572 245.67C622.801 245.195 620.964 246.256 620.49 248.027L615.313 267.346C614.839 269.116 615.899 270.954 617.67 271.428L643.428 278.33C645.199 278.804 647.036 277.744 647.511 275.973L652.687 256.654ZM649.467 255.792L634.432 260.39L623.709 248.89L649.467 255.792ZM644.291 275.11L618.533 268.208L622.847 252.109L633.569 263.61L648.605 259.011L644.291 275.11Z" fill="#72A9B0"/>
<path d="M575.75 265C575.472 265 575.181 264.993 574.875 264.98C574.569 264.966 574.278 264.944 574 264.917V255.167L582.333 253.5L587.167 258.333C589.278 257.056 591.216 255.542 592.98 253.792C594.743 252.042 596.208 250.167 597.375 248.167L592.625 243.375L594.167 235H603.917C603.972 235.278 604 235.569 604 235.875V236.75C604 240.333 603.201 243.826 601.603 247.228C600.007 250.632 597.896 253.653 595.27 256.292C592.646 258.931 589.632 261.042 586.23 262.625C582.827 264.208 579.333 265 575.75 265Z" fill="#72A9B0"/>
</g>
<defs>
<clipPath id="clip0_2546_2110">
<rect width="673.321" height="570.351" fill="white" transform="translate(147.622 -55.2683) rotate(15)"/>
</clipPath>
<clipPath id="clip1_2546_2110">
<rect width="40" height="40" fill="white" transform="translate(595.353 175) rotate(15)"/>
</clipPath>
<clipPath id="clip2_2546_2110">
<rect width="39" height="40" fill="white" transform="translate(639.353 187) rotate(15)"/>
</clipPath>
</defs>
</svg>
