<svg width="69" height="29" viewBox="0 0 69 29" fill="none" xmlns="http://www.w3.org/2000/svg">
<path d="M15.1964 9.70488C15.1114 8.76929 14.7329 8.04208 14.061 7.52325C13.3975 6.99592 12.4492 6.73225 11.2159 6.73225C10.3994 6.73225 9.71895 6.83857 9.1746 7.0512C8.63026 7.26384 8.222 7.55727 7.94982 7.93151C7.67765 8.29724 7.53731 8.71826 7.52881 9.19456C7.5118 9.58581 7.58834 9.93028 7.75845 10.228C7.93707 10.5257 8.19223 10.7893 8.52394 11.019C8.86415 11.2401 9.27241 11.4357 9.74872 11.6058C10.225 11.776 10.7609 11.9248 11.3562 12.0524L13.6017 12.5627C14.8945 12.8434 16.0342 13.2176 17.0208 13.6854C18.016 14.1532 18.8495 14.7103 19.5214 15.3567C20.2019 16.0031 20.7164 16.7474 21.0652 17.5894C21.4139 18.4314 21.5925 19.3755 21.601 20.4217C21.5925 22.0717 21.1757 23.4879 20.3507 24.6701C19.5257 25.8524 18.3392 26.7582 16.7912 27.3876C15.2517 28.017 13.3933 28.3317 11.2159 28.3317C9.03001 28.3317 7.1248 28.0043 5.50027 27.3493C3.87574 26.6944 2.61269 25.6993 1.71111 24.3639C0.809541 23.0286 0.345997 21.3403 0.320481 19.299H6.36782C6.41885 20.141 6.64425 20.8427 7.044 21.4041C7.44375 21.9654 7.99235 22.3907 8.68979 22.6799C9.39574 22.9691 10.2123 23.1136 11.1393 23.1136C11.9899 23.1136 12.7128 22.9988 13.3082 22.7692C13.9121 22.5395 14.3757 22.2206 14.6989 21.8123C15.0221 21.4041 15.1879 20.9363 15.1964 20.4089C15.1879 19.9156 15.0348 19.4946 14.7371 19.1459C14.4394 18.7887 13.9802 18.4825 13.3593 18.2273C12.7469 17.9636 11.9644 17.7212 11.0118 17.5001L8.28153 16.8622C6.0191 16.3433 4.23722 15.5056 2.93589 14.3488C1.63456 13.1836 0.988155 11.6101 0.99666 9.62834C0.988155 8.01231 1.42193 6.59616 2.29799 5.37989C3.17404 4.16362 4.38606 3.21527 5.93404 2.53483C7.48203 1.8544 9.2469 1.51419 11.2287 1.51419C13.2529 1.51419 15.0093 1.85865 16.4978 2.54759C17.9947 3.22802 19.1557 4.18488 19.9807 5.41816C20.8057 6.65145 21.2268 8.08035 21.2438 9.70488H15.1964ZM33.9508 28.37C31.901 28.37 30.1319 27.966 28.6435 27.158C27.1635 26.3414 26.0238 25.1805 25.2243 23.675C24.4333 22.161 24.0378 20.3622 24.0378 18.2783C24.0378 16.254 24.4375 14.4849 25.237 12.971C26.0366 11.4485 27.1635 10.2662 28.6179 9.42421C30.0724 8.57367 31.7862 8.1484 33.7595 8.1484C35.1543 8.1484 36.4302 8.36528 37.5869 8.79906C38.7436 9.23284 39.743 9.87499 40.585 10.7255C41.4271 11.5761 42.082 12.6265 42.5498 13.8768C43.0176 15.1186 43.2515 16.5432 43.2515 18.1507V19.7072H26.2194V16.0839H37.4465C37.438 15.4205 37.2807 14.8294 36.9745 14.3106C36.6683 13.7917 36.2473 13.3877 35.7114 13.0985C35.1841 12.8009 34.576 12.652 33.887 12.652C33.1896 12.652 32.5644 12.8094 32.0116 13.1241C31.4587 13.4303 31.0207 13.8513 30.6975 14.3871C30.3743 14.9144 30.2042 15.5141 30.1872 16.186V19.8731C30.1872 20.6726 30.3445 21.3743 30.6592 21.9782C30.9739 22.5736 31.4205 23.0371 31.9988 23.3688C32.5772 23.7005 33.2661 23.8664 34.0657 23.8664C34.6185 23.8664 35.1203 23.7898 35.5711 23.6367C36.0219 23.4836 36.4089 23.2582 36.7321 22.9606C37.0553 22.6629 37.2977 22.2971 37.4593 21.8634L43.1877 22.0292C42.9495 23.3135 42.4265 24.432 41.6184 25.3846C40.8189 26.3287 39.7685 27.0644 38.4672 27.5917C37.1659 28.1106 35.6604 28.37 33.9508 28.37ZM52.6765 1.87141V28H46.4378V1.87141H52.6765ZM67.7853 8.40356V12.9965H55.1803V8.40356H67.7853ZM57.8085 28V7.40843C57.8085 5.89447 58.0934 4.63992 58.6633 3.64479C59.2331 2.64115 60.0241 1.89268 61.0363 1.39936C62.0484 0.897543 63.2179 0.646634 64.5448 0.646634C65.4123 0.646634 66.2288 0.714677 66.9943 0.850765C67.7683 0.978346 68.3424 1.09317 68.7167 1.19523L67.7215 5.76263C67.4919 5.68608 67.2112 5.62229 66.8795 5.57126C66.5563 5.52023 66.2501 5.49471 65.9609 5.49471C65.2294 5.49471 64.7276 5.65631 64.4554 5.97952C64.1833 6.30273 64.0472 6.74501 64.0472 7.30636V28H57.8085Z" fill="white"/>
</svg>
