<svg width="53" height="57" viewBox="0 0 53 57" fill="none" xmlns="http://www.w3.org/2000/svg">
<path d="M35.333 11.875L32.1972 15.2475L28.6859 11.4712V38H24.3134V11.4712L20.8022 15.2475L17.6663 11.875L26.4997 2.375L35.333 11.875ZM44.1663 23.75V49.875C44.1663 52.4875 42.1788 54.625 39.7497 54.625H13.2497C12.0783 54.625 10.9549 54.1246 10.1266 53.2338C9.29833 52.343 8.83301 51.1348 8.83301 49.875V23.75C8.83301 21.1138 10.7984 19 13.2497 19H19.8747V23.75H13.2497V49.875H39.7497V23.75H33.1247V19H39.7497C40.921 19 42.0444 19.5004 42.8727 20.3912C43.701 21.282 44.1663 22.4902 44.1663 23.75Z" fill="#053B47"/>
</svg>
